<?xml version="1.0" encoding="UTF-8"?><svg id="a" xmlns="http://www.w3.org/2000/svg" width="32" height="32" viewBox="0 0 32 32"><path fill="#ffffff" d="m29.51,28.9H3.48L15.99,3.84l10.99,21.95c.15.3.51.42.81.27.3-.15.42-.51.27-.8L16.53,2.23c-.1-.2-.31-.33-.54-.33h0c-.23,0-.44.13-.54.33L1.98,29.23c-.09.19-.08.41.03.58s.3.28.51.28h27c.33,0,.6-.27.6-.6s-.27-.6-.6-.6Z"/><path fill="#ffffff" d="m15.29,23.37c-.09.1-.16.21-.21.33-.05.12-.08.25-.08.38,0,.27.1.52.29.71.19.19.44.29.71.29.13,0,.26-.03.38-.08s.23-.12.33-.21c.19-.19.29-.44.29-.71s-.11-.52-.29-.71c-.1-.09-.2-.16-.33-.21-.37-.16-.81-.07-1.09.21Z"/><path fill="#ffffff" d="m16,11.59c-.54,0-.98.43-1,.97,0,0-.01.01-.01.02l.44,9c0,.28.22.5.5.5s.5-.22.5-.5l.57-8.96s0,0,0,0c0,0,0-.01,0-.02,0-.56-.45-1.01-1.01-1.01Z"/></svg>