<?xml version="1.0" encoding="UTF-8"?><svg id="a" xmlns="http://www.w3.org/2000/svg" width="36" height="36" viewBox="0 0 36 36"><path fill="#ffffff" d="m26.75,11.23l.64-1.36c.27-.66.01-1.44-.66-1.83-.65-.3-1.42-.13-1.87.43,0,0-.06.08-.06.09l-.89,1.23c-2.78-1.11-5.83-1.43-8.78-.89C6.4,10.48.58,18.87,2.16,27.6c.05.29.31.49.59.49.04,0,.07,0,.11,0,.33-.06.54-.37.48-.7-1.46-8.08,3.92-15.84,11.99-17.31,2.63-.48,5.35-.22,7.84.72l-7.05,9.81c-.2.28-.41.56-.62.83-.38.51-.77,1.02-1.11,1.56l-.1.16c-.55.84-1.18,1.79-1.13,2.9.01.44.13.88.35,1.28.27.46.62.86,1.04,1.15.51.4,1.13.61,1.78.61.24,0,.49-.03.74-.09.94-.32,1.71-.98,2.18-1.85.15-.25.28-.5.4-.76,1.18-2.55,2.37-5.09,3.57-7.64l3.02-6.44c4.89,3.27,7.46,9.24,6.39,15.06-.06.33.16.64.48.7.04,0,.07,0,.11,0,.28,0,.54-.2.59-.49,1.16-6.35-1.67-12.86-7.06-16.37Zm-4.62,7.03c-1.2,2.55-2.39,5.1-3.58,7.65-.1.22-.21.44-.34.65,0,0-.01.02-.02.03-.32.61-.86,1.07-1.46,1.27-.51.12-1.04,0-1.47-.33-.29-.21-.53-.47-.71-.77-.12-.23-.19-.48-.2-.74-.03-.73.46-1.48.93-2.2l.11-.16c.33-.51.7-1,1.07-1.49.21-.28.42-.57.63-.85l8.68-12.08c.08-.1.2-.14.29-.14.03,0,.06,0,.09.02.11.06.15.2.12.29l-4.16,8.87Z"/></svg>