<?xml version="1.0" encoding="UTF-8"?><svg id="a" xmlns="http://www.w3.org/2000/svg" width="32" height="32" viewBox="0 0 32 32"><path fill="#ffffff" d="m16.01,1.37C7.94,1.37,1.36,7.94,1.36,16.02s6.57,14.65,14.65,14.65,14.65-6.57,14.65-14.65S24.09,1.37,16.01,1.37Zm0,28c-7.36,0-13.35-5.99-13.35-13.35S8.65,2.67,16.01,2.67s13.35,5.99,13.35,13.35-5.99,13.35-13.35,13.35Z"/><path fill="#ffffff" d="m22.59,9.56c-.25-.25-.67-.25-.92,0l-5.57,5.57-5.57-5.57c-.25-.25-.67-.25-.92,0s-.25.67,0,.92l5.57,5.57-5.57,5.57c-.25.25-.25.67,0,.92.13.13.29.19.46.19s.33-.06.46-.19l5.57-5.57,5.57,5.57c.13.13.29.19.46.19s.33-.06.46-.19c.25-.25.25-.67,0-.92l-5.57-5.57,5.57-5.57c.25-.25.25-.67,0-.92Z"/></svg>