<?xml version="1.0" encoding="UTF-8"?><svg id="a" xmlns="http://www.w3.org/2000/svg" width="32" height="32" viewBox="0 0 32 32"><path fill="#ffffff" d="m16.01,1.92C8.24,1.92,1.91,8.24,1.91,16.02s6.33,14.1,14.1,14.1,14.1-6.33,14.1-14.1S23.79,1.92,16.01,1.92Zm0,27c-7.11,0-12.9-5.79-12.9-12.9S8.9,3.12,16.01,3.12s12.9,5.79,12.9,12.9-5.79,12.9-12.9,12.9Z"/><path fill="#ffffff" d="m16.58,22.14c-.55-.24-1.21-.11-1.63.31-.14.15-.24.31-.32.49-.07.18-.12.37-.12.57,0,.4.15.78.43,1.06.28.28.66.43,1.06.43.19,0,.39-.05.57-.12.18-.07.34-.18.49-.31.28-.29.43-.66.43-1.06s-.17-.78-.43-1.06c-.15-.13-.3-.24-.49-.31Z"/><path fill="#ffffff" d="m15.92,20.73c.39,0,.71-.32.71-.72l.81-12.53s0,0,0,0c0-.01,0-.02,0-.03,0-.8-.64-1.44-1.43-1.44s-1.38.62-1.42,1.38c0,.01-.01.02-.01.03l.62,12.59c0,.4.32.72.71.72Z"/></svg>