<?xml version="1.0" encoding="UTF-8"?><svg id="a" xmlns="http://www.w3.org/2000/svg" width="32" height="32" viewBox="0 0 32 32"><path fill="#ffffff" d="m19.66,30h-7.32c-1.04,0-1.89-.85-1.89-1.89v-6.56H3.89c-1.04,0-1.89-.85-1.89-1.89v-7.32c0-1.04.85-1.89,1.89-1.89h6.56V3.89c0-1.04.85-1.89,1.89-1.89h7.32c1.04,0,1.89.85,1.89,1.89v6.56h6.56c1.04,0,1.89.85,1.89,1.89v7.32c0,1.04-.85,1.89-1.89,1.89h-6.56v6.56c0,1.04-.85,1.89-1.89,1.89ZM3.89,11.65c-.38,0-.69.31-.69.69v7.32c0,.38.31.69.69.69h7.16c.33,0,.6.27.6.6v7.16c0,.38.31.69.69.69h7.32c.38,0,.69-.31.69-.69v-7.16c0-.33.27-.6.6-.6h7.16c.38,0,.69-.31.69-.69v-7.32c0-.38-.31-.69-.69-.69h-7.16c-.33,0-.6-.27-.6-.6V3.89c0-.38-.31-.69-.69-.69h-7.32c-.38,0-.69.31-.69.69v7.16c0,.33-.27.6-.6.6H3.89Z"/></svg>