<?xml version="1.0" encoding="UTF-8"?><svg id="a" xmlns="http://www.w3.org/2000/svg" width="32" height="32" viewBox="0 0 32 32"><path fill="#ffffff" d="m6.57,20.29s.07.01.11.01c.28,0,.54-.2.59-.49l1.37-7.32.45-2.51c.57-3.22,2.62-6.66,6.66-6.66,2.3,0,4.25,1.19,5.5,3.36.17.29.53.39.82.22.29-.16.39-.53.22-.82-1.46-2.56-3.79-3.96-6.54-3.96-3.94,0-7.02,3-7.84,7.65l-1.81,9.83c-.06.33.15.64.48.7Z"/><path fill="#ffffff" d="m5.83,23.21c.14,0,.28-.05.39-.15L25.88,6.07c.25-.22.28-.6.06-.85-.22-.25-.59-.28-.85-.06L5.44,22.16c-.25.22-.28.6-.06.85.12.14.29.21.45.21Z"/><path fill="#ffffff" d="m28.65,22.61c-.25-.3-.62-.55-1.16-.91-1-.68-2.07-1.64-2.43-3.64l-1.47-8.29c-.06-.33-.37-.54-.7-.49-.33.06-.54.37-.49.7l1.47,8.29c.44,2.46,1.8,3.65,3.01,4.47.38.26.71.48.84.64.1.12.17.2.17.63v.45h-6.57c-.17,0-.32.07-.43.18-.11-.11-.26-.18-.43-.18-.33,0-.6.27-.6.6,0,2.27-1.85,4.11-4.11,4.11s-4.11-1.85-4.11-4.11c0-.33-.27-.6-.6-.6-.13,0-.24.05-.33.11-.1-.07-.21-.11-.33-.11H3c-.33,0-.6.27-.6.6s.27.6.6.6h7.36s.08-.02.13-.03c.29,2.66,2.52,4.74,5.26,4.74s5.01-2.12,5.26-4.81c.09.06.19.1.31.1h7.17c.33,0,.6-.27.6-.6v-1.05c0-.64-.12-1.01-.44-1.4Z"/></svg>