<?xml version="1.0" encoding="UTF-8"?><svg id="a" xmlns="http://www.w3.org/2000/svg" width="32" height="32" viewBox="0 0 32 32"><path fill="#ffffff" d="m7.73,30.08c-.15,0-.31-.06-.42-.17l-5.23-5.19c-.11-.11-.18-.27-.18-.43s.06-.31.18-.43l10.14-10.07-.28-1.17c-.09-.57-.13-1-.13-1.43,0-2.46.96-4.77,2.71-6.51,2.15-2.14,4.88-3.08,7.64-2.64l1.69.27c.22.04.41.19.48.41.07.21.01.45-.15.61l-5.25,5.21.94,3.55,3.58.93,5.22-5.18c.16-.16.39-.21.61-.15.21.07.37.25.41.48l.27,1.68h0c.46,2.86-.45,5.67-2.5,7.7-1.8,1.78-4.15,2.76-6.61,2.76-.32,0-.64-.02-.98-.06l-1.45-.29c-.08-.02-.15-.04-.21-.06l-10.07,9.99c-.12.12-.27.17-.42.17Zm-4.37-5.79l4.37,4.34,9.92-9.84c.16-.16.41-.22.62-.14l.18.07c.09.03.17.07.26.09l1.35.27c.25.02.52.04.8.04,2.14,0,4.19-.86,5.76-2.42,1.77-1.76,2.56-4.18,2.16-6.65l-.09-.53-4.63,4.6c-.15.15-.37.21-.57.15l-4.25-1.11c-.21-.05-.37-.22-.43-.43l-1.12-4.22c-.05-.21,0-.43.16-.58l4.65-4.62-.52-.08c-2.38-.37-4.73.44-6.61,2.31-1.52,1.51-2.35,3.52-2.35,5.65,0,.36.03.75.1,1.21l.34,1.38c.07.22.02.46-.14.62L3.36,24.3Z"/></svg>