<svg width="215" height="192" viewBox="0 0 215 192" fill="none" xmlns="http://www.w3.org/2000/svg">
<path opacity="0.09" d="M184.975 2.02612H30.0547C14.5406 2.02612 1.96387 14.5474 1.96387 29.9932V162.007C1.96387 177.452 14.5406 189.974 30.0547 189.974H184.975C200.49 189.974 213.066 177.452 213.066 162.007V29.9932C213.066 14.5474 200.49 2.02612 184.975 2.02612Z" fill="url(#paint0_linear_1031_248)"/>
<path opacity="0.18" d="M30.491 4.04346H184.508C199.161 4.04346 211.071 15.9008 211.071 30.4896V161.51C211.071 176.098 199.161 187.956 184.508 187.956H30.491C15.8376 187.956 3.9278 176.098 3.9278 161.51V30.4896C3.89662 15.8697 15.8064 4.04346 30.491 4.04346Z" fill="url(#paint1_linear_1031_248)"/>
<path opacity="0.27" d="M184.072 6.03064H30.928C17.0841 6.03064 5.86133 17.2039 5.86133 30.9868V161.045C5.86133 174.828 17.0841 186.001 30.928 186.001H184.072C197.916 186.001 209.138 174.828 209.138 161.045V30.9868C209.138 17.2039 197.916 6.03064 184.072 6.03064Z" fill="url(#paint2_linear_1031_248)"/>
<path opacity="0.36" d="M183.635 8.01654H31.3642C18.364 8.01654 7.8252 18.5089 7.8252 31.4518V160.547C7.8252 173.49 18.364 183.983 31.3642 183.983H183.635C196.635 183.983 207.174 173.49 207.174 160.547V31.4518C207.174 18.5089 196.635 8.01654 183.635 8.01654Z" fill="url(#paint3_linear_1031_248)"/>
<path opacity="0.45" d="M31.8013 10.0031H183.199C195.358 10.0031 205.21 19.8428 205.21 31.9174V160.051C205.21 172.156 195.327 181.965 183.199 181.965H31.8013C19.6421 181.965 9.79004 172.125 9.79004 160.051V31.9484C9.79004 19.8428 19.6733 10.0342 31.8013 10.0342V10.0031Z" fill="url(#paint4_linear_1031_248)"/>
<path opacity="0.55" d="M32.2364 12.0213H182.761C194.079 12.0213 203.276 21.1781 203.276 32.4457V159.586C203.276 170.853 194.079 180.01 182.761 180.01H32.2364C20.919 180.01 11.7217 170.853 11.7217 159.586V32.4146C11.7217 21.1471 20.919 11.9903 32.2364 11.9903V12.0213Z" fill="url(#paint5_linear_1031_248)"/>
<path opacity="0.64" d="M182.325 14.0077H32.6736C22.1873 14.0077 13.6865 22.471 13.6865 32.9111V159.089C13.6865 169.529 22.1873 177.992 32.6736 177.992H182.325C192.812 177.992 201.312 169.529 201.312 159.089V32.9111C201.312 22.471 192.812 14.0077 182.325 14.0077Z" fill="url(#paint6_linear_1031_248)"/>
<path opacity="0.73" d="M181.89 15.9942H33.1107C23.4682 15.9942 15.6514 23.7766 15.6514 33.3766V158.623C15.6514 168.223 23.4682 176.006 33.1107 176.006H181.89C191.532 176.006 199.349 168.223 199.349 158.623V33.3766C199.349 23.7766 191.532 15.9942 181.89 15.9942Z" fill="url(#paint7_linear_1031_248)"/>
<path opacity="0.82" d="M181.453 17.9808H33.5781C24.762 17.9808 17.6152 25.0961 17.6152 33.8733V158.096C17.6152 166.873 24.762 173.988 33.5781 173.988H181.453C190.269 173.988 197.416 166.873 197.416 158.096V33.8733C197.416 25.0961 190.269 17.9808 181.453 17.9808Z" fill="url(#paint8_linear_1031_248)"/>
<path opacity="0.91" d="M180.984 19.9981H33.982C26.0097 19.9981 19.5469 26.4325 19.5469 34.3697V157.661C19.5469 165.598 26.0097 172.032 33.982 172.032H180.984C188.956 172.032 195.419 165.598 195.419 157.661V34.3697C195.419 26.4325 188.956 19.9981 180.984 19.9981Z" fill="url(#paint9_linear_1031_248)"/>
<path d="M34.4202 21.9847H180.549C187.689 21.9847 193.456 27.7581 193.456 34.8353V157.133C193.456 164.241 187.657 169.984 180.549 169.984H34.4202C27.2805 169.984 21.5127 164.21 21.5127 157.133V34.8353C21.5127 27.7271 27.3117 21.9847 34.4202 21.9847Z" fill="url(#paint10_linear_1031_248)"/>
<path d="M42.6355 29H174.364C180.801 29 186 34.2273 186 40.6351V151.365C186 157.801 180.772 163 174.364 163H42.6355C36.1995 163 31 157.773 31 151.365V40.6351C31 34.1992 36.2276 29 42.6355 29Z" fill="url(#paint11_linear_1031_248)"/>
<g filter="url(#filter0_d_1031_248)">
<path d="M57 98.9272L88.3919 130L158 62" stroke="url(#paint12_linear_1031_248)" stroke-width="28"/>
</g>
<defs>
<filter id="filter0_d_1031_248" x="37.6514" y="48.4855" width="139.632" height="116.649" filterUnits="userSpaceOnUse" color-interpolation-filters="sRGB">
<feFlood flood-opacity="0" result="BackgroundImageFix"/>
<feColorMatrix in="SourceAlpha" type="matrix" values="0 0 0 0 0 0 0 0 0 0 0 0 0 0 0 0 0 0 127 0" result="hardAlpha"/>
<feOffset dy="6"/>
<feGaussianBlur stdDeviation="4.75"/>
<feComposite in2="hardAlpha" operator="out"/>
<feColorMatrix type="matrix" values="0 0 0 0 0 0 0 0 0 0 0 0 0 0 0 0 0 0 0.22 0"/>
<feBlend mode="normal" in2="BackgroundImageFix" result="effect1_dropShadow_1031_248"/>
<feBlend mode="normal" in="SourceGraphic" in2="effect1_dropShadow_1031_248" result="shape"/>
</filter>
<linearGradient id="paint0_linear_1031_248" x1="4.92573" y1="19.0981" x2="205.998" y2="171.179" gradientUnits="userSpaceOnUse">
<stop stop-color="white"/>
<stop offset="0.31" stop-color="#F6F8FB"/>
<stop offset="0.8" stop-color="#E0E5F3"/>
<stop offset="1" stop-color="#D5DDEF"/>
</linearGradient>
<linearGradient id="paint1_linear_1031_248" x1="6.95201" y1="20.1222" x2="204.321" y2="170.388" gradientUnits="userSpaceOnUse">
<stop stop-color="white"/>
<stop offset="0.3" stop-color="#F7F8FC"/>
<stop offset="0.76" stop-color="#E2E7F4"/>
<stop offset="1" stop-color="#D5DDEF"/>
</linearGradient>
<linearGradient id="paint2_linear_1031_248" x1="8.94789" y1="21.1471" x2="202.645" y2="169.599" gradientUnits="userSpaceOnUse">
<stop stop-color="white"/>
<stop offset="0.3" stop-color="#F7F9FC"/>
<stop offset="0.73" stop-color="#E4E9F4"/>
<stop offset="1" stop-color="#D5DDEF"/>
</linearGradient>
<linearGradient id="paint3_linear_1031_248" x1="10.9429" y1="22.1708" x2="200.967" y2="168.777" gradientUnits="userSpaceOnUse">
<stop stop-color="white"/>
<stop offset="0.29" stop-color="#F8F9FC"/>
<stop offset="0.71" stop-color="#E6EBF5"/>
<stop offset="1" stop-color="#D5DDEF"/>
</linearGradient>
<linearGradient id="paint4_linear_1031_248" x1="12.939" y1="23.2262" x2="199.291" y2="167.955" gradientUnits="userSpaceOnUse">
<stop stop-color="white"/>
<stop offset="0.29" stop-color="#F8FAFC"/>
<stop offset="0.68" stop-color="#E7ECF6"/>
<stop offset="1" stop-color="#D5DDEF"/>
</linearGradient>
<linearGradient id="paint5_linear_1031_248" x1="14.933" y1="24.2822" x2="197.614" y2="167.104" gradientUnits="userSpaceOnUse">
<stop stop-color="white"/>
<stop offset="0.29" stop-color="#F9FAFC"/>
<stop offset="0.67" stop-color="#E9EDF6"/>
<stop offset="1" stop-color="#D5DDEF"/>
</linearGradient>
<linearGradient id="paint6_linear_1031_248" x1="16.8978" y1="25.3373" x2="195.938" y2="166.22" gradientUnits="userSpaceOnUse">
<stop stop-color="white"/>
<stop offset="0.29" stop-color="#F9FAFC"/>
<stop offset="0.65" stop-color="#EAEEF7"/>
<stop offset="1" stop-color="#D5DDEF"/>
</linearGradient>
<linearGradient id="paint7_linear_1031_248" x1="18.8626" y1="26.4237" x2="194.263" y2="165.336" gradientUnits="userSpaceOnUse">
<stop stop-color="white"/>
<stop offset="0.29" stop-color="#FAFAFD"/>
<stop offset="0.64" stop-color="#EBEFF7"/>
<stop offset="1" stop-color="#D5DDEF"/>
</linearGradient>
<linearGradient id="paint8_linear_1031_248" x1="20.8265" y1="27.5101" x2="192.586" y2="164.453" gradientUnits="userSpaceOnUse">
<stop stop-color="white"/>
<stop offset="0.3" stop-color="#FAFBFD"/>
<stop offset="0.63" stop-color="#ECF0F7"/>
<stop offset="0.99" stop-color="#D5DDEF"/>
<stop offset="1" stop-color="#D5DDEF"/>
</linearGradient>
<linearGradient id="paint9_linear_1031_248" x1="22.7893" y1="28.5962" x2="190.909" y2="163.538" gradientUnits="userSpaceOnUse">
<stop stop-color="white"/>
<stop offset="0.3" stop-color="#FAFBFD"/>
<stop offset="0.63" stop-color="#EDF0F8"/>
<stop offset="0.96" stop-color="#D7DFF0"/>
<stop offset="1" stop-color="#D5DDEF"/>
</linearGradient>
<linearGradient id="paint10_linear_1031_248" x1="24.724" y1="29.7136" x2="189.235" y2="162.623" gradientUnits="userSpaceOnUse">
<stop stop-color="white"/>
<stop offset="0.3" stop-color="#FAFBFD"/>
<stop offset="0.62" stop-color="#EEF1F8"/>
<stop offset="0.94" stop-color="#D9E0F0"/>
<stop offset="1" stop-color="#D5DDEF"/>
</linearGradient>
<linearGradient id="paint11_linear_1031_248" x1="30.0163" y1="24.7282" x2="244.479" y2="219.498" gradientUnits="userSpaceOnUse">
<stop stop-color="#EBF1FF"/>
<stop offset="1" stop-color="#F4F5FA"/>
</linearGradient>
<linearGradient id="paint12_linear_1031_248" x1="93.8995" y1="85.2841" x2="120.649" y2="142.503" gradientUnits="userSpaceOnUse">
<stop stop-color="#D553FF"/>
<stop offset="1" stop-color="#225DF2"/>
</linearGradient>
</defs>
</svg>
